<svg width="32" height="32" viewBox="0 0 256 256" xmlns="http://www.w3.org/2000/svg">
  <g>
    <circle cx="128" cy="128" r="128" fill="#000"></circle>
    <path d="M170.7 67.7c-5.4-7.6-8.6-16.8-8.6-26.7h-26.8v125.7c0 11.4-9.3 20.7-20.7 20.7s-20.7-9.3-20.7-20.7c0-11.1 9-20.1 20.1-20.7v-27.2c-26.5.6-47.8 22.1-47.8 48 0 26.5 21.5 48 48 48 26.5 0 48-21.5 48-48V97.7c7.6 4.1 16.3 6.5 25.5 6.5V77.5c-8.5 0-16.7-2.7-23.7-7.4z" fill="#fff"></path>
    <path d="M196.3 104.2v-20.7c-9.2 0-17.9-2.4-25.5-6.5v34.5c-18.6 0-33.6-15.1-33.6-33.6V41h-19.6v125.7c0 11.4-9.3 20.7-20.7 20.7s-20.7-9.3-20.7-20.7c0-9.8 6.8-18 16-20.2v-20.8c-20.8 2.1-36.8 19.4-36.8 40.5 0 22.4 18.2 40.6 40.6 40.6 22.4 0 40.6-18.2 40.6-40.6V97.7c7.6 4.1 16.3 6.5 25.5 6.5z" fill="#25F4EE"></path>
    <path d="M170.7 67.7c-5.4-7.6-8.6-16.8-8.6-26.7h-26.8v125.7c0 11.4-9.3 20.7-20.7 20.7s-20.7-9.3-20.7-20.7c0-11.1 9-20.1 20.1-20.7v-13.6c-19.2.6-34.6 16.3-34.6 35.6 0 19.7 16 35.7 35.7 35.7 19.7 0 35.7-16 35.7-35.7V97.7c7.6 4.1 16.3 6.5 25.5 6.5v-20.7c-8.5 0-16.7-2.7-23.7-7.4z" fill="#FE2C55"></path>
  </g>
</svg>
