<svg xmlns="http://www.w3.org/2000/svg" width="32" height="32" viewBox="0 0 48 48" fill="none">
  <rect width="48" height="48" rx="10" fill="#FF0000"></rect>
  <path d="M36.12 16.56a3.74 3.74 0 0 0-2.64-2.65C31.02 13.36 24 13.36 24 13.36s-7.02 0-9.48.55a3.74 3.74 0 0 0-2.64 2.65c-.54 2.46-.54 7.58-.54 7.58s0 5.12.54 7.58a3.74 3.74 0 0 0 2.64 2.64c2.46.55 9.48.55 9.48.55s7.02 0 9.48-.55a3.74 3.74 0 0 0 2.64-2.64c.54-2.46.54-7.58.54-7.58s0-5.12-.54-7.58ZM21.52 29.17v-8.34l7.94 4.17-7.94 4.17Z" fill="#fff"></path>
</svg>
